<svg width="474" height="567" viewBox="0 0 474 567" fill="none" xmlns="http://www.w3.org/2000/svg">
<path fill-rule="evenodd" clip-rule="evenodd" d="M242.042 75.2596C298.823 75.2596 357.552 119.272 378.366 147.357C395.865 170.97 405.287 277.745 405.287 349.905C405.287 364.997 413.615 393.446 411.185 407.882C402.279 460.781 363.476 505.146 286.678 505.146C209.879 505.146 154.816 474.704 97.7333 392.973C70.0367 392.973 56.6137 371.733 56.4188 338.214C56.2239 304.695 83.1531 292.5 83.1531 292.5C83.1531 292.5 73.5515 160.221 97.7333 125.782C121.915 91.3425 185.261 75.2596 242.042 75.2596Z" fill="#FFDBB4"/>
<path fill-rule="evenodd" clip-rule="evenodd" d="M218.146 56.5559C253.996 52.9259 289.126 55.9759 324.456 62.2869C327.156 62.7759 328.686 64.5469 329.255 66.6759C345.896 67.4359 362.556 68.6569 379.175 69.5669C385.206 69.8969 388.625 75.8559 385.875 81.2369C385.326 82.3059 384.755 83.3459 384.175 84.3859L384.904 84.1457C389.903 82.5418 395.304 81.7511 400.175 84.2969C406.375 87.5369 408.806 94.6859 407.436 101.266C407.085 102.946 406.496 104.556 405.826 106.127C407.186 106.037 408.556 106.067 409.916 106.247C417.156 107.207 422.536 112.757 422.916 120.147C423.476 131.306 416.286 142.627 407.816 150.616C409.045 153.147 409.516 156.127 409.005 159.147C407.985 165.117 403.587 168.692 398.489 171.024C400.615 177.775 401.62 184.833 401.027 192.046C400.829 194.454 398.723 196.443 396.5 196.931C404.786 219.745 408.98 244.239 411.996 268.106C414.146 285.087 415.206 302.167 415.335 319.276C415.398 327 415.271 334.733 414.947 342.459L414.816 345.356C414.416 353.707 414.396 362.476 412.896 370.737C418.016 379.446 420.076 390.257 420.946 400.016C422.026 412.096 420.316 424.556 416.505 436.047C402.125 479.466 358.726 506.866 315.135 513.987C274.786 520.577 228.096 511.707 204.516 475.056C204.146 474.476 204.936 473.997 205.396 474.377C222.266 488.096 241.835 494.216 263.096 497.196C299.856 502.337 341.175 493.616 370.675 470.497C384.835 459.397 395.045 443.237 399.536 425.846C401.826 416.957 402.616 407.686 401.715 398.537C400.795 389.257 396.686 381.337 394.096 372.567C393.226 369.606 394.146 366.856 395.956 364.897C396.465 357.776 397.666 350.596 398.125 343.497C398.635 335.426 398.946 327.356 399.056 319.276C399.266 302.516 398.566 285.726 397.156 269.037C394.576 238.476 387.726 208.657 383.706 178.356C382.218 179.691 380.084 180.239 377.848 179.073L377.616 178.946L376.396 178.247C376.326 178.247 376.246 178.257 376.175 178.266C367.826 179.077 359.166 177.917 351.166 175.426C342.795 172.827 335.026 168.827 328.085 163.497C326.766 170.186 326.215 176.946 326.206 183.766C326.196 188.026 321.686 190.237 318.106 188.417C302.236 180.356 287.076 171.067 272.686 160.627C271.005 169.237 269.326 177.846 267.635 186.466C266.986 189.787 262.755 191.127 260.045 189.547C249.266 183.276 239.956 175.067 232.376 165.306C230.863 168.2 229.345 171.093 227.817 173.981L225.516 178.306C223.246 182.556 220.206 187.257 215.236 188.616C209.976 190.056 205.585 186.647 203.816 181.886C203.276 180.407 202.776 178.886 202.316 177.356C197.835 187.587 192.776 197.587 187.056 207.127C178.476 221.436 168.175 234.186 157.906 247.266C154.786 251.237 149.446 247.446 149.016 243.587C148.766 241.317 148.556 239.037 148.375 236.766C142.391 248.842 136.147 260.805 129.344 272.421L130.318 276.238C133.125 287.516 135.456 298.874 137.99 310.212C138.808 313.87 136.864 319.1 132.59 319.723C127.484 320.467 122.653 323.076 117.423 321.281C111.72 319.323 110.593 314.394 107.901 309.722C107.364 308.791 106.739 307.936 106.067 307.124L105.896 307.346C105.476 307.897 104.476 307.297 104.726 306.667L105.019 305.939C102.706 303.484 99.9383 301.436 97.3933 299.233C91.3453 298.214 84.5423 299.33 80.3753 301.787C70.8853 307.386 66.5263 318.926 66.4363 329.537C66.3263 341.957 70.1753 355.917 76.6753 366.537C79.5363 371.207 83.4563 375.426 88.6353 377.497C93.7763 379.556 99.3463 378.917 104.576 380.856C108.036 382.147 110.166 385.987 108.076 389.466C107.936 389.707 107.776 389.926 107.625 390.157L109.181 392.221C110.251 393.651 111.366 395.183 112.406 396.776C115.066 399.837 117.866 402.787 120.576 405.797C125.585 411.346 130.446 417.047 135.375 422.676C140.026 427.987 144.946 432.976 150.016 437.886C154.806 442.537 160.786 446.446 165.186 451.407C169.465 456.247 170.626 464.696 163.585 467.497C155.796 470.603 148.9 463.323 143.657 458.469L143.436 458.266C133.824 449.421 125.144 439.313 118.251 428.184C111.423 432.832 101.547 433.276 94.7483 428.629C91.1703 426.184 88.4253 422.075 87.0913 417.605C85.8333 417.887 84.5763 418.052 83.3503 418.033C82.7193 418.399 82.0863 418.755 81.4463 419.087C76.3753 421.726 70.1463 420.547 67.8263 414.936C65.7137 409.842 67.8906 404.057 69.7935 399.15L70.1863 398.136C71.2663 395.337 72.4563 392.287 73.9363 389.417C69.8163 386.317 66.2953 382.466 63.3163 378.087C53.3063 363.337 48.3063 341.766 50.5163 324.167C51.8463 313.547 56.8353 302.547 65.0053 295.386L64.7063 294.606C62.4163 288.797 60.3353 282.966 58.9863 276.827C57.4063 269.647 56.6353 262.207 55.9363 254.897C54.4563 239.457 54.8563 223.667 56.8263 208.287C60.5263 179.337 69.9063 150.917 86.5563 126.827C81.8353 121.176 78.0963 114.526 80.0453 106.877C80.9363 103.366 82.9653 100.037 86.0263 98.0259C87.7153 96.9169 89.7263 96.7469 91.4163 95.8269L91.9244 95.5471C92.6668 95.1139 92.0989 95.1598 91.6563 93.1469C89.9063 85.1059 91.3563 77.3369 100.206 74.6669C108.536 72.1569 116.416 77.4869 121.346 83.8369C134.246 74.6859 151.246 69.8969 166.196 65.8269C183.196 61.2159 200.635 58.3369 218.146 56.5559ZM78.8067 326.256C78.7457 319.706 84.9557 315.666 91.0667 316.737C95.17 317.451 98.5931 319.9 101.807 322.431L103.375 323.671C107.289 326.744 111.782 330.057 114.116 334.407C117.536 340.827 110.307 349.466 103.557 344.966C98.9263 341.863 95.9584 336.891 92.9212 332.273L92.6067 331.796C91.2267 329.726 90.0167 327.526 88.1257 325.866L87.7172 325.508C87.0957 324.979 86.4283 324.495 85.6257 324.266C84.0773 323.821 81.2093 324.444 80.5265 326.288L80.4657 326.476C80.2157 327.407 78.8167 327.206 78.8067 326.256Z" fill="#321F1B"/>
<path fill-rule="evenodd" clip-rule="evenodd" d="M297.884 446.932C305.443 445.88 313.571 441.599 320.791 445.078C324.166 446.704 325.768 452.265 323.486 455.356C320.001 460.077 316.403 460.858 310.746 461.312C306.505 461.652 302.241 461.677 298.011 461.188L296.935 461.056C289.387 460.082 281.542 457.975 275.695 452.903C274.499 451.865 275.112 449.623 276.647 449.299C283.591 447.838 290.855 447.911 297.884 446.932ZM288.987 429.526C288.984 429.465 289.077 429.465 289.08 429.526C289.263 433.846 290.477 437.851 292.721 441.547C292.752 441.6 292.671 441.647 292.64 441.595C290.395 437.896 289.17 433.85 288.987 429.526ZM312.814 340.367C320.366 344.957 331.872 355.66 323.748 367.04C314.186 377.073 300.419 365.569 293.634 360.366C287.343 356.334 280.275 366.705 286.112 371.413C335.136 407.708 355.031 341.567 316.634 334.97C312.406 334.243 310.836 338.947 312.814 340.367ZM351.464 289C353.237 289 354.933 289.602 356.478 290.716C357.998 291.812 359.374 293.412 360.52 295.407C362.689 299.183 364.045 304.396 364.045 310.16C364.045 315.925 362.689 321.138 360.52 324.914C359.374 326.909 357.998 328.509 356.478 329.605C354.933 330.718 353.237 331.32 351.464 331.32C349.691 331.32 347.995 330.718 346.45 329.605C344.93 328.509 343.554 326.909 342.408 324.914C340.239 321.138 338.883 315.925 338.883 310.16C338.883 304.396 340.239 299.183 342.408 295.407C343.554 293.412 344.93 291.812 346.45 290.716C347.995 289.602 349.691 289 351.464 289ZM269.347 294.88L270.014 294.753C273.909 294.045 275.877 294.283 279.269 296.938C281.818 298.933 281.088 302.862 279.269 304.96C276.1 308.616 273.005 307.968 268.665 308.108L268.36 308.119C264.743 308.266 261.123 308.369 257.503 308.424C256.513 308.44 255.522 308.436 254.532 308.442C254.637 317.603 249.355 324.578 242.399 329.881C237.903 333.31 232.216 329.354 230.612 325.086C229.285 321.554 229 317.211 229.688 313.344C229.943 311.918 230.474 310.371 231.286 309.052L231.515 308.698L231.478 308.192C231.469 308.067 231.478 307.946 231.474 307.821C225.016 307.428 218.596 306.781 212.178 305.967L210.039 305.69C204.561 304.965 196.516 304.732 192.083 301.169C191.943 301.055 191.993 300.806 192.141 300.727C194.578 299.414 197.05 299.489 199.776 299.368L200.167 299.349C203.131 299.196 206.088 299.068 209.05 298.967L212.015 298.874C219.597 298.657 227.186 298.289 234.761 297.886C236.078 297.816 237.395 297.733 238.714 297.652C240.093 297.074 241.559 296.728 243.007 296.664C244.207 296.61 245.361 296.776 246.446 297.121C249.212 296.907 251.978 296.674 254.74 296.424L257.503 296.168C261.401 295.797 265.499 295.635 269.347 294.88ZM317.215 226.22C325.548 222.125 335.68 222.025 344.262 225.414L344.831 225.644C353.499 229.241 363.943 237.549 361.681 247.898C359.612 257.37 344.755 255.765 344.002 246.812C339.205 240.166 328.448 238.708 321.686 242.934C317.585 245.498 314.77 249.815 312.846 254.169C311.206 257.877 310.897 262.456 308.378 265.686C308.296 265.791 308.132 265.81 308.013 265.782C300.501 264.044 300.327 252.107 301.608 246.317C303.469 237.899 309.442 230.042 317.215 226.22Z" fill="black"/>
</svg>
